<?xml version="1.0" encoding="UTF-8"?>
<svg xmlns="http://www.w3.org/2000/svg" viewBox="74.03 0 703.33 368.5" width="703" height="369"><rect x="74.03" y="0" width="703.33" height="368.5" fill="#FFFFFF"/>
  <defs/>
  <path d="M96 4l-28.5 97.5c26.7-39.9 47.2-66.1 61.4-78.6C143.1 10.3 156.8 4 169.9 4c7.1 0 13 2.4 17.7 7.1 4.6 4.7 7 10.9 7 18.4 0 8.6-2.1 20-6.2 34.3L162.2 154c-3 10.4-4.5 16.8-4.5 19.1 0 2 .6 3.7 1.7 5 1.1 1.4 2.4 2 3.6 2 1.7 0 3.8-.9 6.2-2.8 7.6-6 15.9-15.1 24.9-27.4l6.6 4.1c-13.3 19-25.9 32.6-37.7 40.7-8.3 5.6-15.7 8.4-22.3 8.4-5.3 0-9.5-1.6-12.6-4.8-3.1-3.2-4.7-7.5-4.7-13 0-6.9 2.4-18.6 7.3-35.4l24.9-86.1c3.1-10.7 4.7-19.1 4.7-25.1 0-2.9-.9-5.2-2.8-7-1.9-1.8-4.1-2.7-6.9-2.7-4 0-8.8 1.7-14.4 5.1-10.6 6.4-21.6 17-33 31.8C91.8 80.7 79.7 99.6 67 122.6c-6.7 12.1-12.3 25.4-16.7 39.9l-10.7 35.4H7.5l39-134.1c4.6-16.1 6.9-25.9 6.9-29.1 0-3.1-1.3-5.9-3.7-8.2-2.5-2.4-5.6-3.5-9.3-3.5-1.7 0-4.7.3-9 .9L23.2 25l-1.3-7.7L96 4zM425.1 9.1l-37.3 127.7c-5.6 19-8.4 31-8.4 36 0 2.6.5 4.5 1.4 5.7.9 1.2 2.2 1.8 3.7 1.8 2.4 0 5.1-1.1 8-3.3 2.9-2.2 10.3-11 22.2-26.5l6.4 4.9c-11.3 17.9-22.9 31-34.7 39.4-7.9 5.4-15.4 8.1-22.7 8.1-5.6 0-9.9-1.6-13.1-4.7-3.1-3.1-4.7-7.2-4.7-12.2 0-4.9.9-11.3 2.8-19.3 2.3-10.6 8.8-33.6 19.5-69-24.3 39.9-44.6 67.4-61 82.5-16.2 15.3-31.4 22.8-45.4 22.8-6.6 0-12.1-2.3-16.7-6.9-4.6-4.6-6.9-10.4-6.9-17.4 0-10.7 3.1-27.1 9.4-49.3l18.6-66.2c4.6-15.9 6.9-25.7 6.9-29.6 0-1.7-.6-3.2-1.8-4.4-1.2-1.2-2.5-1.8-4-1.8-3 0-6 1.1-9 3.2s-9.8 10.1-20.4 23.8l-6.6-4.7c10.7-16.6 22.1-28.8 34.1-36.6 9.1-6.1 17.6-9.2 25.3-9.2 5.3 0 9.6 1.7 13 5 3.4 3.4 5 7.7 5 13 0 7.7-2.9 21.5-8.6 41.4L280 132.5c-5.6 18.9-8.4 30.8-8.4 35.8 0 2.7.9 4.9 2.7 6.5 1.8 1.6 4.2 2.5 7.2 2.5 4.7 0 10.9-2.4 18.4-7.1 7.6-4.7 17.7-15.2 30.3-31.4 12.6-16.2 23.1-31.4 31.3-45.6 8.2-14.2 17-36.8 26.2-67.8l4.7-16.3h32.7zM534.8 4l-28.5 97.5c26.7-39.9 47.2-66.1 61.4-78.6C581.9 10.3 595.6 4 608.7 4c7.1 0 13 2.4 17.7 7.1 4.6 4.7 7 10.9 7 18.4 0 8.6-2.1 20-6.2 34.3L601 154c-3 10.4-4.5 16.8-4.5 19.1 0 2 .6 3.7 1.7 5 1.1 1.4 2.4 2 3.6 2 1.7 0 3.8-.9 6.2-2.8 7.6-6 15.9-15.1 24.9-27.4l6.6 4.1c-13.3 19-25.9 32.6-37.7 40.7-8.3 5.6-15.7 8.4-22.3 8.4-5.3 0-9.5-1.6-12.6-4.8-3.1-3.2-4.7-7.5-4.7-13 0-6.9 2.4-18.6 7.3-35.4l24.9-86.1c3.1-10.7 4.7-19.1 4.7-25.1 0-2.9-.9-5.2-2.8-7-1.9-1.8-4.1-2.7-6.9-2.7-4 0-8.8 1.7-14.4 5.1-10.6 6.4-21.6 17-33 31.8-11.4 14.8-23.5 33.7-36.2 56.7-6.7 12.1-12.3 25.4-16.7 39.9l-10.7 35.4h-32.1l39-134.1c4.6-16.1 6.9-25.9 6.9-29.1 0-3.1-1.3-5.9-3.7-8.2-2.5-2.4-5.6-3.5-9.3-3.5-1.7 0-4.7.3-9 .9L462 25l-1.3-7.7L534.8 4zM826.8 151.2c-14.9 17.9-29.9 31-45 39.3-15.1 8.4-31.1 12.5-48 12.5-20.3 0-36.1-5.7-47.5-17.1-11.4-11.4-17-26.8-17-46.1 0-21.9 6.1-43.4 18.3-64.5C699.9 54.2 716.3 37 737 23.8 757.6 10.6 777.9 4 797.7 4c15.6 0 27.2 3.3 34.9 9.7 7.7 6.5 11.6 14.5 11.6 23.9 0 8.9-2.7 16.4-8.1 22.7-4 4.9-8.9 7.3-14.8 7.3-4.4 0-8.1-1.4-11-4.3-2.9-2.9-4.4-6.4-4.4-10.7 0-2.7.5-5.2 1.6-7.5s3.3-5 6.6-8.2c3.4-3.2 5.4-5.5 6.1-7 .7-1.4 1.1-2.9 1.1-4.5 0-3-1.4-5.5-4.1-7.5-4.1-2.9-10-4.3-17.6-4.3-14 0-27.9 4.9-41.6 14.8-13.7 9.9-25.4 23.9-35.1 42-11.7 22-17.6 44-17.6 66 0 14.6 4.1 26.1 12.4 34.6s19.6 12.7 33.9 12.7c11 0 21.9-2.7 32.7-8.2 10.8-5.5 22.9-15.5 36.3-29.9l6.2 5.6z"/>
  <g>
    <path d="M65.4 362.6c-.9-1.8-1.6-5-2.2-9.7-7.3 7.6-16 11.4-26.1 11.4-9 0-16.4-2.6-22.2-7.7-5.8-5.1-8.7-11.6-8.7-19.4 0-9.5 3.6-17 10.9-22.2 7.3-5.3 17.5-7.9 30.6-7.9H63v-7.2c0-5.5-1.6-9.8-4.9-13.1-3.3-3.2-8.1-4.9-14.5-4.9-5.6 0-10.3 1.4-14.1 4.2-3.8 2.8-5.7 6.2-5.7 10.3H8.1c0-4.6 1.6-9 4.9-13.3 3.2-4.3 7.7-7.6 13.2-10.1 5.6-2.5 11.7-3.7 18.3-3.7 10.6 0 18.8 2.6 24.8 7.9 6 5.3 9.1 12.6 9.3 21.8v42.2c0 8.4 1.1 15.1 3.2 20.1v1.4H65.4zm-26-12c4.9 0 9.6-1.3 14-3.8s7.6-5.8 9.6-9.9v-18.8H50.7c-19.2 0-28.8 5.6-28.8 16.9 0 4.9 1.6 8.8 4.9 11.5 3.3 2.7 7.5 4.1 12.6 4.1zM147.5 285c-2.4-.4-4.9-.6-7.7-.6-10.3 0-17.3 4.4-20.9 13.1v65.1h-15.7v-91.7h15.2l.3 10.6c5.1-8.2 12.4-12.3 21.9-12.3 3 0 5.4.4 6.9 1.2V285zM197.1 351.5c5.6 0 10.5-1.7 14.7-5.1 4.2-3.4 6.5-7.6 6.9-12.7h14.8c-.3 5.3-2.1 10.3-5.4 15-3.3 4.7-7.8 8.5-13.3 11.4-5.6 2.8-11.5 4.2-17.7 4.2-12.5 0-22.4-4.2-29.8-12.5-7.4-8.3-11.1-19.7-11.1-34.2V315c0-8.9 1.6-16.9 4.9-23.8 3.3-6.9 8-12.3 14.1-16.2 6.1-3.8 13.4-5.8 21.7-5.8 10.3 0 18.8 3.1 25.6 9.2 6.8 6.2 10.4 14.1 10.9 24h-14.8c-.5-5.9-2.7-10.8-6.7-14.6-4-3.8-9-5.7-15-5.7-8 0-14.1 2.9-18.5 8.6-4.4 5.7-6.6 14-6.6 24.9v3c0 10.6 2.2 18.7 6.5 24.4 4.5 5.6 10.7 8.5 18.8 8.5zM266.8 282c6.9-8.5 16-12.8 27.1-12.8 19.4 0 29.1 10.9 29.3 32.8v60.6h-15.7v-60.7c-.1-6.6-1.6-11.5-4.5-14.7-3-3.2-7.6-4.7-13.9-4.7-5.1 0-9.5 1.4-13.4 4.1-3.8 2.7-6.8 6.3-9 10.7v65.3H251V232.4h15.7V282zM346.7 246.6c0-2.5.8-4.7 2.3-6.4 1.6-1.8 3.9-2.6 6.9-2.6 3 0 5.4.9 6.9 2.6 1.6 1.8 2.4 3.9 2.4 6.4 0 2.5-.8 4.7-2.4 6.4-1.6 1.7-3.9 2.5-6.9 2.5-3.1 0-5.4-.8-6.9-2.5-1.5-1.8-2.3-3.9-2.3-6.4zm17 116H348v-91.7h15.7v91.7zM410 248.7v22.2h17.1V283H410v56.9c0 3.7.8 6.4 2.3 8.3 1.5 1.8 4.1 2.8 7.8 2.8 1.8 0 4.3-.3 7.5-1v12.6c-4.1 1.1-8.1 1.7-12 1.7-7 0-12.3-2.1-15.8-6.4-3.6-4.2-5.3-10.2-5.3-18V283h-16.7v-12.1h16.7v-22.2H410zM483.5 364.3c-12.4 0-22.5-4.1-30.3-12.2-7.8-8.2-11.7-19.1-11.7-32.7v-2.9c0-9.1 1.7-17.2 5.2-24.4 3.5-7.1 8.3-12.7 14.6-16.8 6.2-4 13-6.1 20.3-6.1 11.9 0 21.2 3.9 27.8 11.8 6.6 7.8 9.9 19.1 9.9 33.7v6.5h-62.1c.2 9 2.9 16.3 7.9 21.9 5.1 5.6 11.5 8.3 19.3 8.3 5.5 0 10.2-1.1 14.1-3.4 3.8-2.3 7.2-5.3 10.1-9l9.6 7.5c-7.9 11.9-19.4 17.8-34.7 17.8zm-2-82.2c-6.3 0-11.6 2.3-15.9 6.9-4.3 4.6-6.9 11.1-8 19.4h45.9v-1.2c-.5-8-2.6-14.1-6.4-18.5-3.8-4.4-9-6.6-15.6-6.6zM574.1 351.5c5.6 0 10.5-1.7 14.7-5.1 4.2-3.4 6.5-7.6 6.9-12.7h14.8c-.3 5.3-2.1 10.3-5.4 15-3.3 4.7-7.8 8.5-13.3 11.4-5.6 2.8-11.5 4.2-17.7 4.2-12.5 0-22.4-4.2-29.8-12.5-7.4-8.3-11.1-19.7-11.1-34.2V315c0-8.9 1.6-16.9 4.9-23.8 3.3-6.9 8-12.3 14.1-16.2s13.4-5.8 21.7-5.8c10.3 0 18.8 3.1 25.6 9.2 6.8 6.2 10.4 14.1 10.9 24h-14.8c-.5-5.9-2.7-10.8-6.7-14.6-4-3.8-9-5.7-15-5.7-8 0-14.1 2.9-18.5 8.6-4.4 5.7-6.6 14-6.6 24.9v3c0 10.6 2.2 18.7 6.5 24.4 4.5 5.6 10.7 8.5 18.8 8.5zM649.4 248.7v22.2h17.1V283h-17.1v56.9c0 3.7.8 6.4 2.3 8.3 1.5 1.8 4.1 2.8 7.8 2.8 1.8 0 4.3-.3 7.5-1v12.6c-4.1 1.1-8.1 1.7-12 1.7-7 0-12.3-2.1-15.8-6.4-3.6-4.2-5.3-10.2-5.3-18V283H617v-12.1h16.7v-22.2h15.7zM722.9 364.3c-12.4 0-22.5-4.1-30.3-12.2-7.8-8.2-11.7-19.1-11.7-32.7v-2.9c0-9.1 1.7-17.2 5.2-24.4 3.5-7.1 8.3-12.7 14.6-16.8 6.2-4 13-6.1 20.3-6.1 11.9 0 21.2 3.9 27.8 11.8 6.6 7.8 9.9 19.1 9.9 33.7v6.5h-62.1c.2 9 2.9 16.3 7.9 21.9 5.1 5.6 11.5 8.3 19.3 8.3 5.5 0 10.2-1.1 14.1-3.4 3.8-2.3 7.2-5.3 10.1-9l9.6 7.5c-7.9 11.9-19.4 17.8-34.7 17.8zm-2-82.2c-6.3 0-11.6 2.3-15.9 6.9-4.3 4.6-6.9 11.1-8 19.4h45.9v-1.2c-.5-8-2.6-14.1-6.4-18.5-3.9-4.4-9-6.6-15.6-6.6zM830.1 338.2c0-4.2-1.6-7.5-4.8-9.9-3.2-2.3-8.8-4.4-16.7-6.1-7.9-1.7-14.2-3.7-18.9-6.1-4.7-2.4-8.1-5.2-10.3-8.5-2.2-3.3-3.3-7.2-3.3-11.7 0-7.5 3.2-13.9 9.5-19.1 6.4-5.2 14.5-7.8 24.4-7.8 10.4 0 18.8 2.7 25.3 8 6.5 5.4 9.7 12.2 9.7 20.6h-15.8c0-4.3-1.8-8-5.5-11.1-3.6-3.1-8.2-4.7-13.8-4.7-5.7 0-10.2 1.2-13.4 3.7-3.2 2.5-4.8 5.7-4.8 9.7 0 3.8 1.5 6.6 4.5 8.6 3 1.9 8.4 3.8 16.2 5.5 7.8 1.8 14.2 3.8 19 6.3 4.9 2.4 8.5 5.4 10.8 8.8 2.3 3.4 3.5 7.6 3.5 12.5 0 8.2-3.3 14.8-9.8 19.7-6.6 4.9-15.1 7.4-25.5 7.4-7.3 0-13.8-1.3-19.5-3.9-5.6-2.6-10.1-6.2-13.3-10.9-3.2-4.7-4.8-9.7-4.8-15.1h15.7c.3 5.3 2.4 9.4 6.3 12.5 3.9 3.1 9.1 4.6 15.5 4.6 5.9 0 10.7-1.2 14.3-3.6 3.7-2.1 5.5-5.3 5.5-9.4z"/>
  </g>
</svg>
